<svg width="31" height="72" viewBox="0 0 31 72" fill="none" xmlns="http://www.w3.org/2000/svg">
<path d="M14.9109 36.5645H0V53.7195H14.9109V36.5645Z" fill="#0265B5"/>
<path d="M3.80322 39.3809V46.1433C3.80322 49.7234 5.3591 51.0361 7.39904 51.0361C9.5427 51.0361 11.1677 49.604 11.1677 46.0637V39.3809H9.85388V46.183C9.85388 48.6891 8.88577 49.8427 7.43361 49.8427C6.08518 49.8427 5.11708 48.7687 5.11708 46.183V39.3809H3.80322Z" fill="white"/>
<path d="M30.8066 36.5557H15.8701V53.7401H30.8066V36.5557Z" fill="#0265B5"/>
<path d="M20.8142 50.8769V45.9841C20.8142 44.0748 20.8142 42.6825 20.7105 41.2505H20.7451C21.2291 42.4836 21.8861 43.7963 22.6121 45.0692L25.7931 50.8769H27.1069V39.4206H25.8968V44.2339C25.8968 46.0239 25.9314 47.4162 26.0351 48.9278H26.0005C25.551 47.7344 24.9632 46.541 24.2372 45.1886L21.0563 39.3809H19.6387V50.8769H20.8142Z" fill="white"/>
<path d="M30.8066 54.8154H15.8701V71.9999H30.8066V54.8154Z" fill="#0265B5"/>
<path d="M25.8624 58.4742C25.2746 57.8775 24.3411 57.5195 23.0618 57.5195C22.0245 57.5195 21.1947 57.6389 20.6069 57.7582V69.0952H21.8862V64.4809C22.1974 64.5604 22.5431 64.6002 22.9235 64.6002C24.1682 64.6002 25.2746 64.1626 25.9661 63.3273C26.4847 62.7306 26.7613 61.8952 26.7613 60.861C26.7613 59.8665 26.4156 59.0311 25.8624 58.4742Z" fill="white"/>
<path d="M22.9576 63.4859C22.5427 63.4859 22.1623 63.4461 21.8857 63.3666V58.9113C22.0932 58.8716 22.5427 58.792 23.0959 58.792C24.5135 58.792 25.447 59.508 25.447 61.0594C25.447 62.6108 24.5135 63.4859 22.9576 63.4859Z" fill="#0265B5"/>
<path d="M14.9365 54.8154H0V71.9999H14.9365V54.8154Z" fill="#0265B5"/>
<path d="M10.511 58.9516C9.64663 57.9969 8.33278 57.5195 6.46572 57.5195C5.42847 57.5195 4.52951 57.6389 3.69971 57.7582V69.0554C4.35663 69.1747 5.11729 69.1747 6.05082 69.1747C7.98703 69.1747 9.54291 68.6178 10.4764 67.5438C11.3754 66.5096 11.894 64.9582 11.894 63.0886C11.9286 61.219 11.41 59.8665 10.511 58.9516Z" fill="white"/>
<path d="M6.32704 67.9821C5.80841 67.9821 5.35894 67.9821 5.01318 67.9025V58.8329C5.35894 58.7534 5.84299 58.6738 6.53449 58.6738C9.26593 58.6738 10.5798 60.3445 10.5798 63.0893C10.5798 66.2318 9.05848 68.0219 6.32704 67.9821Z" fill="#0265B5"/>
<path d="M30.8065 0H0V35.4827H30.8065V0Z" fill="#0265B5"/>
<path d="M26.4497 18.4569C26.0348 19.1729 25.4816 19.8094 25.1013 20.5254C25.1359 19.9685 25.205 19.2525 24.9976 18.7354C24.6518 17.5818 24.3752 16.3884 24.2715 15.1155V14.6382C24.5135 15.9509 25.6199 16.826 25.5508 18.2978C25.5853 18.6558 25.4816 18.9343 25.4125 19.2525L25.447 19.2923L25.4816 19.2127C25.6545 18.4967 25.7236 17.7409 25.9657 17.0647C26.346 16.11 26.7955 15.1553 26.588 13.9619C27.2449 15.3542 27.0721 17.184 26.4497 18.4569Z" fill="white"/>
<path d="M25.7587 11.0979C26.4848 12.2515 26.6577 14.0416 26.1045 15.3543C25.897 15.9112 25.7587 16.5078 25.6896 17.1045C25.655 16.9852 25.655 16.8659 25.6204 16.7465C25.3438 15.4736 24.272 14.5587 23.8571 13.3653C23.7188 12.9675 23.615 12.5697 23.5459 12.1322C23.9954 13.1266 25.1364 13.604 25.4475 14.678C25.5858 14.9565 25.5513 15.2747 25.655 15.5929C25.6896 15.5929 25.6896 15.5929 25.6896 15.5532C25.5513 14.4393 25.5858 13.2858 25.7241 12.1719C25.7241 11.5753 25.655 11.0184 25.3784 10.541C25.5513 10.7001 25.655 10.9388 25.7587 11.0979Z" fill="white"/>
<path d="M25.2745 10.8986C25.4819 11.893 25.2053 12.8477 25.3782 13.8422C24.8942 12.7682 23.9261 12.2908 23.2346 11.4157C22.8197 10.8986 22.6468 10.3019 22.5776 9.62565C22.958 10.6997 24.0298 10.9781 24.6521 11.893C24.8596 12.0919 24.9287 12.4102 25.067 12.6488L25.1016 12.6091C24.7559 11.7339 24.6176 10.7792 24.4101 9.86433C24.2718 9.46654 24.0298 9.06875 23.7186 8.83008C24.4101 9.06875 25.1016 10.0234 25.2745 10.8986Z" fill="white"/>
<path d="M23.1305 8.63243C23.7183 9.2689 23.9949 10.0645 24.1678 10.8998L24.2715 11.1783C23.4071 10.4623 22.6119 9.46779 22.0587 8.47332L21.3672 7.67773C21.955 7.91641 22.6119 8.07553 23.1305 8.63243Z" fill="white"/>
<path d="M11.6864 7.83796C12.8273 7.2015 14.072 6.84349 15.4205 6.80371C18.5322 6.80371 21.4711 8.91199 22.8196 12.2136C23.6839 14.123 23.926 16.7086 23.3728 18.8567C22.8196 21.4025 20.9525 23.9484 18.8088 24.9826C16.3886 26.3351 12.9311 26.0169 10.7874 24.2268C7.77937 21.8799 6.56924 17.7827 7.46819 13.765C8.02139 11.3783 9.681 8.95177 11.6864 7.83796Z" fill="white"/>
<path d="M9.33507 7.75684C8.74729 8.35352 8.29782 9.1491 7.84834 9.86512C7.43344 10.422 6.94938 10.8198 6.46533 11.2972C6.70736 10.7005 6.70736 10.0242 7.08768 9.46733C7.57174 8.47286 8.50527 8.11485 9.33507 7.75684Z" fill="white"/>
<path d="M6.01601 9.86465C6.29262 9.42708 6.67294 9.14863 7.08784 9.0293C6.29262 9.66576 6.32719 10.8193 6.08517 11.774C6.01601 12.132 5.84314 12.4503 5.77399 12.8083L5.80856 12.8481C5.94686 12.4503 6.18889 12.0525 6.46549 11.6945C7.05327 11.0978 7.91765 10.7 8.19425 9.78509C8.19425 11.058 7.26072 12.0525 6.39634 12.7685C6.01601 13.1265 5.67026 13.5641 5.49739 14.0016C5.46281 13.6834 5.53196 13.3652 5.53196 13.0072C5.42824 11.9331 5.35909 10.7 6.01601 9.86465Z" fill="white"/>
<path d="M4.39115 13.6451C4.35658 12.5313 4.77148 11.6163 5.32468 10.781L5.35926 10.7412C4.7369 11.8152 5.25553 13.2075 5.22096 14.4406L5.15181 15.7136C5.15181 15.7136 5.15181 15.7533 5.18638 15.7533C5.22096 15.5942 5.22096 15.4749 5.25553 15.3158C5.39383 14.2815 6.18906 13.5655 6.84599 12.8495C6.98429 12.6506 7.12259 12.4915 7.19174 12.2528C7.12259 12.7699 6.98429 13.2871 6.81141 13.7644C6.29279 14.9578 5.32468 15.9125 5.15181 17.2649C5.08265 15.992 4.28743 14.9975 4.39115 13.6451Z" fill="white"/>
<path d="M3.90723 15.2354C3.97638 14.8774 4.04553 14.5194 4.14926 14.2012C3.90723 15.673 4.77161 16.747 5.04821 18.0199C5.15194 18.4973 5.18651 19.0144 5.35939 19.452C5.35939 19.452 5.39397 19.452 5.39397 19.4122C4.97906 18.0597 5.56684 16.7868 6.18919 15.7128C6.32749 15.4343 6.43122 15.1161 6.50037 14.7581C6.56952 15.3548 6.43122 16.0708 6.36207 16.7072C6.22377 17.5028 5.98174 18.2984 5.80887 19.0939C5.67057 19.5713 5.70514 20.1282 5.77429 20.6453L5.70514 20.6055C5.25566 19.6508 4.35671 18.8951 4.11468 17.8608C3.90723 17.105 3.76893 16.1105 3.90723 15.2354Z" fill="white"/>
<path d="M3.87245 18.0993C3.97618 19.6507 5.42833 20.486 6.11983 21.7987C6.29271 22.0772 6.43101 22.3556 6.63846 22.5943C6.60389 22.4352 6.46559 22.2761 6.43101 22.117C6.18898 21.5601 6.11983 20.9236 6.15441 20.2871C6.22356 19.4915 6.50016 18.7357 6.39644 17.9004C6.98421 19.3722 6.81134 21.2418 7.15709 22.833C7.22624 23.191 7.43369 23.5092 7.53741 23.8275C6.32729 22.8728 4.6331 21.9578 4.11448 20.2076C3.83788 19.5711 3.8033 18.8153 3.87245 18.0993Z" fill="white"/>
<path d="M4.59863 21.721C5.29014 23.511 6.98432 23.6303 8.1253 24.7441C8.33275 24.943 8.57478 25.1419 8.78223 25.2613C8.50563 24.9828 8.22903 24.6646 8.02158 24.3066C7.36465 23.2325 7.5721 21.721 7.08805 20.5674C7.53752 21.2038 7.95243 21.8403 8.22903 22.5563C8.64393 23.7099 8.78223 25.0226 9.75034 25.8977C8.71308 25.4999 7.50295 25.6193 6.60399 24.9032C5.67046 24.1872 4.77151 22.9939 4.59863 21.721Z" fill="white"/>
<path d="M6.36182 25.0203C7.46822 26.4523 9.23155 25.975 10.6837 26.333C10.8912 26.3728 11.064 26.4523 11.3061 26.4126C11.1332 26.2932 10.8912 26.2932 10.6837 26.1739C9.54273 25.6965 9.36985 24.3043 8.7475 23.3496C9.54273 23.9463 10.1997 24.7816 10.9257 25.5772C11.4444 26.0943 12.0667 26.333 12.7582 26.4921C12.5853 26.5717 12.3779 26.5319 12.205 26.5717C10.9949 26.9297 9.68103 27.4468 8.40175 26.9694C7.60652 26.691 6.77672 25.9352 6.36182 25.0203Z" fill="white"/>
<path d="M21.1944 28.363C19.9497 28.8801 18.6704 28.3232 17.7023 27.4879C17.322 27.2094 16.9762 26.7718 16.4576 26.8116C16.2847 26.8116 16.1118 26.8116 15.939 26.8514C16.8725 27.3685 17.7369 28.0448 18.5321 28.9199C18.3938 29.079 18.2209 29.2779 18.048 29.3972C17.2874 28.4426 16.423 27.5276 15.4895 27.0105C15.3166 27.0503 15.1437 27.1696 14.9709 27.2492C14.2102 27.8061 13.4496 28.5221 12.8618 29.437L12.3777 28.9597C13.1729 28.0448 14.0373 27.3287 15.0054 26.8116C14.0719 26.4536 13.4496 27.3685 12.758 27.8459C11.9282 28.5221 10.7527 28.8403 9.75001 28.363C9.19681 28.1243 8.67818 27.7663 8.29785 27.2094C9.09308 27.8459 10.2686 27.8856 11.1676 27.4879C12.3777 26.8912 13.6224 26.1354 15.0746 26.4934C15.3166 26.4934 15.5241 26.7718 15.7315 26.5332C16.8033 26.2149 18.0135 26.4536 18.947 27.0105L19.9151 27.4481C20.8141 27.8459 21.955 27.7265 22.7157 27.0901C22.2662 27.7265 21.7476 28.1243 21.1944 28.363Z" fill="white"/>
<path d="M22.5083 26.8921C21.1253 27.4887 19.7423 26.7727 18.3939 26.4943L18.1519 26.4545C18.7742 26.2954 19.3966 26.0567 19.9152 25.5396C20.6413 24.7042 21.3328 23.8689 22.1626 23.2324C21.5402 24.1473 21.4711 25.4203 20.4684 26.0169C20.2264 26.2158 19.9152 26.2556 19.6386 26.3749C20.0189 26.3749 20.3301 26.2158 20.7104 26.176C22.0589 25.9374 23.6147 26.176 24.5828 24.8633C24.2025 25.7783 23.3036 26.5738 22.5083 26.8921Z" fill="white"/>
<path d="M23.2687 25.2583C22.5772 25.4572 21.8165 25.5368 21.125 25.8152C22.3006 24.6616 22.2314 22.8716 22.9921 21.5589C23.2341 21.1611 23.4415 20.7633 23.7181 20.4053C23.2341 21.4793 23.4415 22.9114 22.9229 23.9854C22.7155 24.423 22.4043 24.8207 22.0931 25.139C22.1968 25.139 22.3006 25.0196 22.4043 24.9401C23.3032 23.9456 24.4442 23.6274 25.3777 22.8318C25.7581 22.4738 26.1038 22.0362 26.2767 21.5191C26.1038 23.1898 24.6517 24.7412 23.2687 25.2583Z" fill="white"/>
<path d="M25.0328 22.3953C24.4795 22.7931 23.9263 23.1909 23.4077 23.6683V23.6285C24.2029 22.0771 23.8226 19.9688 24.3067 18.2981L24.4795 17.7412C24.3758 18.7755 24.7907 19.6904 24.7561 20.7644C24.7216 21.4009 24.5487 21.9578 24.2375 22.4749H24.2721C24.6524 21.8782 24.9636 21.2417 25.4477 20.6848C26.1737 19.8893 26.8998 19.0937 26.969 17.9799C27.2456 19.7699 26.3466 21.3611 25.0328 22.3953Z" fill="white"/>
<path d="M18.8434 22.2764L18.9125 22.1968C19.1545 21.9581 19.4311 21.7592 19.6386 21.4808H19.6732C19.6386 21.4808 19.5694 21.5206 19.5003 21.4808C19.362 21.441 19.362 21.3217 19.362 21.1626L18.8434 20.5659L18.8088 20.4863C18.7742 20.6057 18.7051 20.6852 18.6359 20.7648C18.6359 20.8443 18.6013 20.9637 18.7051 21.0034C18.8779 21.083 19.0854 21.2023 19.12 21.4012C19.0508 21.6001 18.7051 21.799 18.9125 22.0377C18.9817 22.157 18.8088 22.1968 18.8434 22.2764Z" fill="#0265B5"/>
<path d="M15.9045 14.5994C16.0083 14.679 16.0428 14.5597 16.1466 14.5199C16.2503 14.5199 16.354 14.6392 16.4232 14.7188C16.4923 14.7586 16.5615 14.7188 16.6306 14.679C16.6652 14.2812 17.1147 14.3608 17.2184 13.963L17.1492 14.0028C17.1147 13.963 17.0455 13.963 17.0455 13.8834C17.1147 13.8039 17.2184 13.6845 17.2875 13.6447C16.9072 13.3663 16.5269 13.1674 16.112 13.048C15.9391 13.0083 15.7662 13.0083 15.6279 12.9287C15.6971 13.2072 15.6279 13.605 15.6971 13.9232L15.9737 14.0425C16.0774 13.8834 16.2503 13.8436 16.3194 13.6845C16.3886 13.6447 16.4232 13.6845 16.4923 13.7243C16.4923 13.8436 16.4923 13.963 16.4577 14.0823C16.3194 14.4005 16.0428 14.4403 15.9045 14.5994Z" fill="#0265B5"/>
<path d="M20.2957 17.7817C20.1228 18.4182 19.9153 19.0149 19.5696 19.5718C19.4313 19.7707 19.293 20.0491 19.1201 20.1287L19.5004 20.5265C19.535 20.4867 19.5004 20.4469 19.5004 20.4469C19.5004 20.4071 19.535 20.3276 19.5696 20.3276C19.7425 20.3276 19.7425 20.5265 19.8462 20.6458C19.8116 20.8447 19.9499 20.964 19.9153 21.1231C20.9526 19.8502 21.4712 18.3386 21.575 16.6281L21.6441 16.5486C21.2638 16.5883 20.8835 16.5486 20.5031 16.5486L20.3994 16.5088C20.434 16.7872 20.3648 17.0657 20.3302 17.3441L20.4685 17.5033C20.5031 17.5828 20.5031 17.6624 20.434 17.7022C20.3994 17.8613 20.3302 17.8215 20.2957 17.7817Z" fill="#0265B5"/>
<path d="M19.2932 13.6039C19.1549 13.2857 18.9475 13.047 18.74 12.7686L18.7054 12.8083C18.3251 13.2459 17.9102 13.7232 17.5645 14.2006C17.599 14.2404 17.6336 14.3199 17.6682 14.3199C17.6682 14.2006 17.7373 14.121 17.7373 14.0017C17.8411 13.8426 17.9794 13.9619 18.1177 13.9619C18.3251 13.9221 18.498 14.0017 18.7054 14.0017C18.8437 14.0813 18.8783 14.3199 19.0166 14.3995C19.0512 14.479 19.0166 14.5188 18.982 14.5984C19.0166 14.9564 19.1549 14.5188 19.3278 14.5984C19.3969 14.6382 19.4661 14.5984 19.5352 14.6779C19.5698 14.8371 19.7081 14.7973 19.7081 14.9564C19.7081 15.036 19.639 15.036 19.5698 15.0757C19.6044 15.2348 19.4315 15.3144 19.5007 15.4735C19.7427 15.5133 19.7427 15.1951 19.8464 15.0757C19.7773 14.8371 19.7427 14.5984 19.6044 14.3597C19.4661 14.3199 19.3969 14.1608 19.2586 14.121C19.0166 13.9619 19.3278 13.8028 19.2932 13.6039Z" fill="#0265B5"/>
<path d="M15.6278 23.4689C15.939 23.3496 16.2848 23.3894 16.6305 23.3098C16.5614 23.27 16.4922 23.27 16.4576 23.1905C16.2502 23.1905 16.181 22.9518 16.1119 22.7529C16.0773 22.6336 16.1465 22.5143 16.2156 22.3949C16.1465 22.196 15.8699 22.3551 15.7316 22.2756C15.697 22.2358 15.6624 22.196 15.5933 22.1562L15.6624 22.2756C15.6278 22.6734 15.6624 23.0711 15.6278 23.4689Z" fill="#0265B5"/>
<path d="M15.9046 19.77C16.0083 19.8098 15.9392 19.9291 16.0083 19.9689C16.1812 19.8893 16.3195 20.128 16.4232 20.0087C16.4232 19.77 16.6307 19.8098 16.769 19.7302C16.9419 19.6109 17.1493 19.4518 17.1493 19.1335L17.1147 19.0938C16.9764 19.0938 16.9073 19.2131 16.8381 19.2926C16.7344 19.3722 16.6653 19.1335 16.5615 19.2131C16.5615 19.2529 16.5961 19.2529 16.5961 19.2529C16.6307 19.2926 16.6307 19.3722 16.5961 19.3722C16.4578 19.5313 16.3887 19.2926 16.2504 19.3324V19.3722C16.2504 19.412 16.2504 19.4518 16.2158 19.4518C16.1466 19.2926 15.9738 19.3722 15.87 19.2131C15.8009 19.1733 15.7663 19.2131 15.7317 19.2529C15.6972 19.3324 15.5589 19.2529 15.5934 19.3722C15.4897 19.412 15.4897 19.5313 15.4206 19.6109C15.2823 19.5711 15.2477 19.77 15.1094 19.7302C15.1094 19.77 15.1094 19.8098 15.1439 19.8098C15.2131 19.8495 15.2823 19.8495 15.386 19.8495C15.5243 19.6904 15.7317 19.8893 15.9046 19.77Z" fill="#0265B5"/>
<path d="M17.1143 17.9391C17.1143 18.0186 17.1143 18.0982 17.1834 18.1777C17.3563 18.138 17.2871 18.4164 17.4254 18.3766C17.4946 18.3369 17.4254 18.2573 17.46 18.2175C17.4254 18.0584 17.3217 18.0584 17.218 17.9788C17.218 17.9391 17.218 17.9391 17.2526 17.8993C17.1834 17.8595 17.1488 17.8993 17.1143 17.9391Z" fill="#0265B5"/>
<path d="M16.9071 11.4169C16.4922 11.2577 16.0427 11.1782 15.5933 11.0986L15.6278 11.218V12.4909L15.7316 12.4511C16.4231 12.5704 17.0454 12.8091 17.564 13.3262L17.5986 13.4058C17.7715 13.1273 18.0481 12.8489 18.2901 12.5704L18.4976 12.4511L18.3938 12.4113C17.9444 11.9738 17.4603 11.6158 16.9071 11.4169Z" fill="#0265B5"/>
<path d="M9.3006 16.7063L9.40432 17.5814C9.4389 17.8996 9.5772 18.2577 9.54262 18.5759C9.5772 18.4963 9.54262 18.377 9.68092 18.3372C9.64635 18.2179 9.75007 18.1383 9.68092 18.0588C9.7155 17.8201 9.75007 17.5814 9.92295 17.4223C10.1304 17.4223 10.165 17.104 10.3724 17.0643C10.4762 17.0643 10.5453 17.2234 10.5799 17.2632C10.4416 17.0643 10.4416 16.7858 10.4762 16.5869L10.3724 16.6267C9.9921 16.6267 9.5772 16.6665 9.23145 16.5869L9.3006 16.7063Z" fill="#0265B5"/>
<path d="M16.6654 18.8932C16.7691 18.7741 16.9766 18.7741 16.9766 18.6153C16.8383 18.5756 16.7691 18.6947 16.6654 18.7741C16.6308 18.8138 16.5963 18.8932 16.6654 18.8932Z" fill="#0265B5"/>
<path d="M19.2588 16.5479L19.3971 16.707C19.5354 16.8263 19.4317 17.0252 19.57 17.1048C19.7428 17.1843 19.7774 17.423 19.8466 17.5821C19.8811 17.5423 19.8811 17.5025 19.8811 17.4628C19.9503 17.1843 19.9157 16.9059 19.9849 16.6672C19.7774 16.6274 19.4662 16.6274 19.2588 16.5479Z" fill="#0265B5"/>
<path d="M17.5988 19.8489C17.7371 19.8886 17.8408 20.0875 18.0137 20.0478C18.152 19.9682 18.394 20.0875 18.4977 19.9284C18.4977 19.7693 18.6015 19.6102 18.6706 19.4909H18.7052C18.7743 19.5704 18.7743 19.7295 18.8089 19.8489C18.9126 19.6898 19.0164 19.5704 19.1201 19.4113C19.3967 18.9737 19.6041 18.4566 19.7079 17.9395C19.6041 17.9395 19.5004 17.9792 19.3967 18.019C19.293 18.019 19.1201 18.0986 19.0164 17.9792C18.9818 17.9395 18.9472 17.9792 18.9472 18.019C18.9126 18.0986 18.8781 18.1781 18.7743 18.1384C18.7052 18.0986 18.7052 18.019 18.6706 17.9395C18.6706 17.9792 18.6706 18.0588 18.636 18.0986C18.5669 18.2179 18.5323 18.2975 18.4632 18.4168C18.394 18.5361 18.2211 18.4964 18.152 18.5759C18.152 18.8146 17.91 18.7748 17.8062 18.8146C17.8062 18.8544 17.8408 18.8544 17.8408 18.8544C17.9099 18.8544 17.9791 18.8544 18.0137 18.8146C18.1866 18.8544 18.152 18.6157 18.2557 18.5361C18.3249 18.5361 18.4286 18.4566 18.4977 18.4964C18.6015 18.6157 18.6015 18.8146 18.6015 18.9737C18.4977 19.0931 18.5669 19.2522 18.4977 19.4113C18.4977 19.5704 18.3594 19.65 18.3594 19.8091C18.2903 19.8886 18.2211 19.8886 18.1174 19.8886C17.8062 19.7295 17.4605 19.65 17.0801 19.6102C17.0456 19.6102 17.011 19.65 17.0456 19.6898C17.253 19.7693 17.4605 19.7693 17.5988 19.8489Z" fill="#0265B5"/>
<path d="M15.144 23.9852L15.1786 23.9057L15.0403 23.9455C13.4498 23.8261 12.0322 23.1499 10.8567 21.877V21.9167L10.0269 22.9112C11.3061 24.1841 12.7583 25.0195 14.4179 25.2582C14.6945 25.2979 14.9711 25.2979 15.2477 25.3775L15.1786 25.2582V23.9852H15.144Z" fill="#0265B5"/>
<path d="M13.4839 18.8944C13.9334 19.2922 14.4174 19.5707 14.9706 19.69C15.0052 19.5707 14.9706 19.4115 15.0052 19.2922C15.0398 19.1729 15.1435 19.1729 15.2472 19.2126C15.2818 19.2126 15.3164 19.1331 15.2818 19.0933C15.1781 19.0535 15.2126 18.9342 15.1781 18.8149C15.1781 18.7751 15.2472 18.7751 15.2472 18.7353C15.1781 18.6557 15.2818 18.5762 15.2126 18.4966C15.2472 18.4966 15.2472 18.4568 15.2818 18.4171C15.0398 18.5364 14.7632 18.3773 14.5557 18.2579C14.452 18.1784 14.2791 18.0988 14.2791 17.9795C14.0717 18.2579 13.7605 18.5762 13.4839 18.8944Z" fill="#0265B5"/>
<path d="M13.0695 17.4235C13.0349 17.3837 13.0349 17.4235 13.0003 17.4633C12.9658 17.4633 12.9658 17.4633 12.9312 17.4633C12.9312 17.1848 12.6546 17.3439 12.5854 17.2246C12.6892 17.4633 12.7583 17.7417 12.8966 17.9804C12.9658 18.1793 13.1386 18.3782 13.2078 18.5771C13.2769 18.418 13.4498 18.2589 13.5535 18.0998C13.5535 18.0202 13.5535 17.9804 13.519 17.9009C13.4844 17.7815 13.519 17.6622 13.4498 17.5826C13.3461 17.6224 13.4844 17.7417 13.4498 17.8213C13.4152 17.8611 13.3461 17.8213 13.3461 17.7815C13.2424 17.7815 13.1732 17.6622 13.1386 17.5826C13.2078 17.5031 13.1041 17.4633 13.0695 17.4235Z" fill="#0265B5"/>
<path d="M13.8648 17.542C13.8302 17.6611 13.761 17.7802 13.6919 17.8596C13.7956 17.7802 13.8648 17.6214 14.0031 17.6214L13.8648 17.542Z" fill="#0265B5"/>
<path d="M15.0749 22.1565C14.0722 22.1168 13.2078 21.6792 12.4126 21.0029C12.4472 21.1223 12.5509 21.2018 12.5163 21.3212C12.4472 21.4405 12.3089 21.4405 12.2051 21.4405C11.9631 21.4007 11.7902 21.5996 11.5828 21.6394C11.3753 21.719 11.3062 21.4405 11.1333 21.4405C12.2743 22.5941 13.5881 23.3102 15.1094 23.3897L15.2132 23.4693L15.1786 23.3102V22.077L15.0749 22.1565Z" fill="#0265B5"/>
<path d="M10.6148 21.5209C10.4765 21.4016 10.3382 21.2425 10.2345 21.0834C10.0962 21.0436 9.95786 20.9242 9.88871 20.7651C9.85414 20.7253 9.88871 20.606 9.85414 20.5662L9.81956 20.6458C9.68126 20.7253 9.61211 20.5662 9.50838 20.4867C9.37008 20.4071 9.43923 20.1287 9.26636 20.1684C9.19721 20.1684 9.19721 20.0889 9.12806 20.0491C8.95518 20.0491 8.92061 19.8502 8.85145 19.7707C8.85145 19.8104 8.85145 19.8502 8.81688 19.89C8.644 19.9298 8.60943 19.6911 8.47113 19.6115C8.43655 19.6115 8.43655 19.6513 8.3674 19.6513C8.26368 19.5718 8.19453 19.4126 8.19453 19.2535C8.05623 19.0944 8.12538 18.816 8.15995 18.5773C8.19453 18.5375 8.26368 18.4977 8.2291 18.4182C8.26368 18.3386 8.3674 18.2988 8.43655 18.2988C8.47113 18.2988 8.5057 18.3386 8.5057 18.3784C8.57485 18.3386 8.67858 18.3784 8.644 18.2591C8.71315 18.1795 8.81688 18.1795 8.9206 18.1397C8.98976 18.2193 9.02433 18.3386 9.09348 18.4182L9.02433 18.2988C8.92061 17.8215 8.85145 17.3441 8.81688 16.8668C8.81688 16.827 8.7823 16.827 8.7823 16.7872C8.7823 16.6679 8.7823 16.5883 8.7823 16.5088L8.67858 16.5486H7.5376C7.60675 18.0602 7.9525 19.4524 8.54028 20.6856C8.81688 21.322 9.26636 21.8789 9.64668 22.4358L10.4765 21.4811L10.6148 21.5209Z" fill="#0265B5"/>
<path d="M11.9286 10.5007C11.6866 10.6996 11.4446 10.9781 11.168 11.1372C11.4791 11.3759 11.7212 11.7339 11.9978 12.0123L12.0323 12.0919C12.7238 11.3361 13.5882 10.8587 14.4872 10.6598C14.6946 10.6201 14.9367 10.5405 15.1441 10.6201C15.1441 10.1825 15.1095 9.70515 15.1441 9.26758C13.9686 9.34714 12.8967 9.74493 11.9286 10.5007Z" fill="#0265B5"/>
<path d="M10.9602 15.435C10.9256 15.6736 10.9256 15.9123 10.8564 16.151C10.9947 16.0714 11.2022 16.1112 11.3751 16.1112C11.2713 16.0714 11.3751 15.9123 11.3059 15.8327C11.3059 15.7134 11.2713 15.5543 11.3751 15.4747C11.3751 15.2758 11.5479 15.1963 11.5479 14.9974C11.5825 14.7985 11.79 14.9178 11.8937 14.8383C11.9629 14.7985 11.8937 14.7189 11.8937 14.6792C11.9629 14.5598 12.1012 14.5598 12.2049 14.4803C12.274 14.3609 12.3778 14.2416 12.4815 14.162C12.7235 14.162 12.7235 13.7643 12.9655 13.7643C12.6544 13.4858 12.3432 13.1278 12.0666 12.8096C11.5134 13.6051 11.0985 14.4405 10.9602 15.435Z" fill="#0265B5"/>
<path d="M11.0984 17.3427C11.0984 17.2632 10.9947 17.2234 10.9947 17.1438C11.0638 16.9847 10.9947 16.6665 11.2021 16.6267C11.0638 16.6665 10.9255 16.7063 10.8218 16.5869L10.8909 16.7062C10.8909 17.0245 10.9947 17.3029 10.9601 17.6212C10.9947 17.5416 11.0292 17.4223 11.0984 17.3427Z" fill="#0265B5"/>
<path d="M10.8911 11.5356L10.4417 12.1721C9.71559 13.3257 9.36984 14.6383 9.26611 16.1102L10.4071 16.0704L10.5108 16.1102C10.4762 16.0704 10.4762 16.0306 10.4762 15.9908C10.58 14.6383 10.9949 13.445 11.7901 12.4505C11.4789 12.1323 11.2023 11.8141 10.9257 11.4561L10.8911 11.5356Z" fill="#0265B5"/>
<path d="M14.349 20.3687C14.4527 20.2494 14.5565 20.1698 14.6602 20.13C14.2799 20.2096 13.9687 19.9311 13.6575 19.7322C13.4846 19.6129 13.2426 19.4936 13.1389 19.2549C12.8969 19.6129 12.6203 19.9311 12.3091 20.2096C12.4474 20.2096 12.5165 20.3687 12.6203 20.4483C13.2426 21.0449 14.0033 21.3234 14.7293 21.5223L14.5219 21.4427C14.3836 21.2438 14.1761 21.0052 14.1416 20.7665C14.3144 20.6869 14.3144 20.488 14.349 20.3687Z" fill="#0265B5"/>
<path d="M11.5483 16.6263L11.5137 16.865C11.4791 17.0241 11.3063 16.9048 11.2371 16.9844C11.168 17.0639 11.2371 17.1833 11.2717 17.2628C11.168 17.581 11.5483 17.6606 11.5137 17.939C11.6174 18.0982 11.5137 18.3368 11.652 18.4959C11.6866 18.8142 11.6174 19.212 11.8595 19.4506L11.894 19.7291C11.9286 19.928 11.6866 19.8882 11.7212 20.0473C11.7557 20.0075 11.7903 20.0871 11.7903 20.1269C12.1015 19.6893 12.4818 19.2517 12.8621 18.8937L12.7238 18.6948C12.4472 18.1777 12.2052 17.6606 12.1015 17.0639L11.9978 16.9844C11.9978 17.1435 11.9286 17.2628 11.9286 17.4219L11.894 17.4617C11.8249 17.4617 11.7557 17.3821 11.6866 17.3424C11.6866 17.3026 11.6174 17.223 11.6866 17.1435C11.7212 17.1435 11.7557 17.1435 11.7903 17.1833C11.8249 17.1435 11.8249 17.0639 11.8249 16.9844C11.8249 16.865 11.7557 16.7855 11.8249 16.6661C11.894 16.6661 11.9632 16.7457 11.9978 16.8252C12.0669 16.865 12.1361 16.7855 12.2052 16.7457C12.2052 16.6661 12.3089 16.5468 12.2052 16.507C12.2744 16.3081 12.2052 16.1092 12.2052 15.9501C12.1015 15.8706 11.9286 15.9103 11.8249 15.9103C11.4791 16.0297 11.894 16.3081 11.7903 16.5468C11.7557 16.7059 11.6174 16.5468 11.5483 16.6263Z" fill="#0265B5"/>
<path d="M22.059 16.5876L21.9899 16.5479L22.0245 16.6672C21.9553 18.2583 21.5058 19.6108 20.7106 20.8837C20.5723 21.0826 20.434 21.3611 20.2266 21.4804C20.5377 21.7589 20.8835 22.1964 21.1255 22.5147L21.1601 22.4351C22.4048 20.8042 23.1309 18.855 23.2 16.6672L23.2346 16.5479L23.1654 16.5876H22.059Z" fill="#0265B5"/>
<path d="M10.9252 10.8199L10.9598 10.7403C12.1699 9.46739 13.5529 8.79115 15.1434 8.71159L15.1088 8.59226V7.43867L15.1434 7.31934C13.4838 7.39889 12.0316 8.03535 10.7178 9.10938C10.4758 9.30828 10.2337 9.62651 9.9917 9.78562H10.0263C10.3375 10.0641 10.6486 10.4619 10.9252 10.8199Z" fill="#0265B5"/>
<path d="M15.1094 11.1384C14.0721 11.218 13.1732 11.7351 12.3779 12.4909C12.6891 12.7296 12.9657 13.1274 13.2423 13.4456C13.2769 13.4058 13.2769 13.3661 13.3115 13.3263C13.6918 13.0081 14.1067 12.7296 14.5562 12.5705C14.7636 12.5307 14.9711 12.4511 15.1785 12.4909C15.1439 12.0533 15.1439 11.5362 15.1785 11.0986L15.1094 11.1384Z" fill="#0265B5"/>
<path d="M15.1437 13.0078C14.4868 13.1272 13.8644 13.3658 13.3804 13.9625H13.4841C13.5878 14.0819 13.7261 14.0421 13.8298 14.2012C13.8644 14.2808 13.7607 14.2808 13.7607 14.3603C13.7953 14.4001 13.7953 14.4001 13.8298 14.4001C13.899 14.4399 13.899 14.3603 13.9336 14.3205C14.0373 14.2012 14.0373 14.4399 14.141 14.4399C14.2102 14.4001 14.3139 14.4001 14.3485 14.4797C14.4176 14.4001 14.5559 14.4797 14.5905 14.3603C14.7288 14.2012 14.6597 13.9625 14.8325 13.883C14.9017 13.9227 14.8325 14.0023 14.8671 14.0819C15.0054 14.1614 15.1437 13.9625 15.2474 14.1216C15.1091 13.7238 15.1437 13.3261 15.1437 13.0078Z" fill="#0265B5"/>
<path d="M15.2126 15.1166C15.0743 15.3552 14.9015 15.395 14.694 15.4746C14.6249 15.5541 14.6594 15.7133 14.5211 15.7133C14.4866 15.8326 14.3483 15.8724 14.3828 16.0315C14.3137 16.1906 14.3483 16.3895 14.3137 16.5884C14.0717 16.7475 14.1408 16.3497 14.0025 16.2702L13.9679 16.3099C13.9334 16.3099 13.8988 16.3099 13.8642 16.2702C13.8296 16.2702 13.7605 16.2304 13.7259 16.2702C13.6568 16.3895 13.5876 16.4691 13.6222 16.5884C13.5876 16.668 13.4839 16.6282 13.4839 16.7475C13.6222 16.7475 13.7605 16.7077 13.8988 16.668C14.0025 16.7077 14.0717 16.6282 14.1754 16.6282C14.21 16.6282 14.2445 16.668 14.2445 16.7475H14.2791C14.3483 16.7077 14.3828 16.5884 14.3483 16.5088C14.3483 16.3895 14.452 16.3895 14.5211 16.3895C14.5903 16.4293 14.5557 16.4691 14.5557 16.5088C14.7286 16.5884 14.5211 16.7475 14.4866 16.8669C14.452 16.9464 14.4866 17.1453 14.3483 17.1453C14.3137 17.1453 14.3137 17.1055 14.3137 17.0657H14.2791C14.2791 17.1453 14.3137 17.2646 14.3828 17.2646C14.4866 17.1453 14.4866 16.9862 14.6594 16.9464C14.7286 16.8271 14.6249 16.668 14.7632 16.5884C14.9706 16.5884 15.2126 16.4691 15.3855 16.668C15.3855 16.7475 15.3509 16.7873 15.4201 16.8669C15.3855 16.9862 15.3509 17.1055 15.2818 17.1851C15.3164 17.2646 15.2818 17.3044 15.2472 17.384C15.1781 17.6624 14.9015 17.5431 14.7286 17.6227C14.9706 17.8613 15.2818 17.9409 15.6275 17.9011C15.8004 17.9011 15.7313 17.6227 15.8004 17.5431C15.8696 17.2249 16.1116 17.4238 16.2845 17.3442C16.3536 17.1851 16.4228 17.0657 16.4228 16.9066C16.2499 16.8271 16.2153 16.7077 16.2499 16.5486C16.1807 16.4293 16.1808 16.2304 16.0424 16.2304C16.0079 16.1906 16.0424 16.1508 16.077 16.111C16.077 15.9917 16.1462 15.9917 16.1807 15.8724C16.077 15.7928 16.1116 15.6337 16.1116 15.5541C15.9387 15.5939 15.9387 15.3552 15.8004 15.3155C15.7658 15.1961 15.6621 15.1961 15.593 15.1564C15.3855 15.2757 15.3509 14.9972 15.2126 14.9177C15.2126 14.8779 15.1781 14.7983 15.2126 14.7586C15.2818 14.679 15.3855 14.7586 15.4547 14.7586L15.3855 14.7188C15.3164 14.6392 15.1781 14.679 15.0743 14.7188C15.1781 14.8381 15.1435 14.9972 15.2126 15.1166Z" fill="#0265B5"/>
<path d="M8.85106 16.1108L8.81648 15.9119C8.88563 14.4003 9.30053 13.0479 10.0612 11.8545C10.2341 11.6158 10.3724 11.2976 10.6144 11.1385C10.3378 10.86 10.0612 10.502 9.78459 10.1838L9.75001 10.0645C8.57446 11.576 7.84838 13.2865 7.64093 15.2357C7.60635 15.5141 7.64093 15.7926 7.57178 16.1108C8.02125 16.071 8.47073 16.071 8.85106 16.1108Z" fill="#0265B5"/>
<path d="M19.9845 21.7588C19.8808 22.0372 19.6042 22.1964 19.4313 22.3953C19.1547 22.7135 18.7398 22.7533 18.6015 23.2306C18.4632 23.3897 18.394 23.6284 18.2212 23.708C18.152 23.9466 17.9446 23.9069 17.8063 24.066C17.4605 24.424 17.2531 23.8273 16.9419 23.7875L16.3195 23.9069C16.1121 23.9069 15.87 23.9864 15.6626 23.9069C15.6972 24.3842 15.6972 24.9013 15.6626 25.3787L15.7317 25.3389C17.7025 25.2594 19.4313 24.3842 20.8834 22.8328L19.9845 21.8781V21.7588Z" fill="#0265B5"/>
<path d="M15.6278 8.59272C15.6278 8.55294 15.6278 8.51316 15.6624 8.47338C15.7316 8.4336 15.7661 8.47338 15.8007 8.55294C15.8007 8.6325 15.8353 8.75184 15.7661 8.75184C15.8007 8.75184 15.8353 8.71206 15.8699 8.71206C16.8034 8.79162 17.6678 9.10985 18.463 9.62698V9.5872C18.6359 9.50764 18.8433 9.3883 18.9816 9.54742C19.1891 9.46786 19.2237 9.74631 19.362 9.78609C19.5694 9.90543 19.7769 10.1839 19.8114 10.4226C19.846 10.5021 19.9497 10.5817 19.9843 10.6612C20.1226 10.343 20.3646 10.1043 20.6067 9.82587L20.745 9.74631C19.5003 8.39383 18.0135 7.63802 16.3885 7.35957C16.1119 7.31979 15.8353 7.31979 15.5933 7.24023C15.6624 7.6778 15.6278 8.15515 15.6278 8.59272Z" fill="#0265B5"/>
<path d="M15.6279 10.6205C15.8008 10.541 15.9391 10.6205 16.112 10.6205C16.9072 10.7796 17.6679 11.0581 18.3248 11.6548C18.2556 11.5752 18.1519 11.4559 18.1519 11.2968C18.1519 11.2968 18.1865 11.257 18.1865 11.2968C18.1865 11.1376 18.0482 11.0581 18.0482 10.9387C18.0828 10.899 18.0828 10.899 18.1519 10.899C18.2902 11.0581 18.3939 11.2172 18.4977 11.3763C18.6014 11.3365 18.6705 11.4161 18.7397 11.4559C18.8434 11.5354 18.7743 11.6945 18.878 11.8139C18.878 12.0923 19.1892 12.2515 19.1892 12.5299C19.1892 12.6095 19.2583 12.5299 19.2929 12.5697L19.5349 12.9277C19.5003 13.0073 19.5349 13.0868 19.5695 13.1266C19.6732 13.1664 19.7424 13.0073 19.8461 13.047C20.019 13.1664 19.8115 13.2857 19.8461 13.405C19.9152 13.405 19.9844 13.3653 20.0535 13.405C20.0881 13.5244 19.9844 13.5642 19.9498 13.6437C19.9498 13.763 20.019 13.7233 20.0881 13.763C20.1573 13.763 20.1919 13.8824 20.1919 13.9222C20.3993 14.1608 20.1227 14.4393 20.2264 14.678C20.2956 14.8371 20.2264 14.9962 20.1227 15.1553C20.1227 15.3542 19.9498 15.4735 19.9152 15.6724L19.7078 15.7122C19.6041 15.8316 19.8115 15.9907 19.7078 16.0702H20.1573L20.1227 16.0304C20.0535 15.8316 20.0881 15.5531 20.1919 15.3542C20.261 15.1951 20.261 14.9962 20.3993 14.8371C20.4339 14.8371 20.4685 14.7575 20.503 14.8371C20.503 14.9962 20.503 15.1951 20.4339 15.3144C20.5722 15.5133 20.5376 15.8316 20.5722 16.0702C20.9871 16.0304 21.3674 16.0304 21.7823 16.0304L21.7477 15.9509C21.6786 15.0758 21.5403 14.2404 21.2291 13.4846C21.16 13.4846 21.0908 13.5642 20.9871 13.5244C20.9525 13.5244 20.9179 13.4846 20.9525 13.4448C20.7796 13.2459 20.6759 13.047 20.503 12.8481C20.2956 12.8879 20.1919 12.6095 20.019 12.5697C19.8461 12.4901 19.9498 12.1719 19.7078 12.2515C19.6041 12.2117 19.4658 12.0923 19.4658 11.9332C19.4658 11.6945 19.4312 11.4161 19.2237 11.257C19.0854 11.1774 19.0163 11.4161 18.878 11.3763C18.8088 11.3365 18.8434 11.2172 18.8088 11.1376C18.7743 11.0581 18.7051 11.0183 18.7397 10.9387C18.9471 10.6603 18.4977 10.6603 18.6014 10.3818C18.5668 10.1829 18.3939 10.1034 18.2902 9.94428C17.6679 9.62604 17.0109 9.38737 16.2849 9.26803C16.112 9.22826 15.9391 9.26803 15.8008 9.18848L15.8354 9.26803C15.6279 9.74538 15.6625 10.2227 15.6279 10.6205Z" fill="#0265B5"/>
<path d="M20.0879 11.0975C20.1916 11.1372 20.1916 11.2566 20.2608 11.2964C20.5719 11.4953 20.6411 11.8533 20.9177 12.0522C21.056 12.4102 21.4017 12.6886 21.4017 13.0864C21.7475 14.0013 21.9895 14.956 22.0241 16.03L21.9895 16.0698C22.0241 16.0698 22.0587 16.0698 22.0933 16.03L23.2688 15.9903C23.1997 15.8709 23.2342 15.672 23.1997 15.5129C23.0268 13.4046 22.2661 11.6146 21.056 10.0234C20.814 10.3814 20.5374 10.6997 20.2262 11.0179L20.0879 11.0975Z" fill="#0265B5"/>
<path d="M15.7661 8.35241C15.8007 8.27285 15.9044 8.31263 15.939 8.31263L16.5268 8.03418C16.7688 8.07396 17.0108 8.07396 17.1837 8.31263V8.35241C17.0454 8.51152 16.8379 8.59108 16.6651 8.51152C16.3885 8.59108 16.0081 8.7502 15.8007 8.43197C15.7661 8.43197 15.7661 8.39219 15.7661 8.35241Z" fill="white"/>
<path d="M19.2928 9.23005C19.362 9.26982 19.4657 9.3096 19.4657 9.38915C19.4311 9.50848 19.5348 9.58804 19.5003 9.66759C19.2928 9.74715 19.2582 9.42893 19.0854 9.38915C19.0508 9.34938 19.0508 9.3096 19.0508 9.26982C19.1545 9.15049 19.2237 9.3096 19.2928 9.23005Z" fill="white"/>
</svg>
